<mxfile host="app.diagrams.net" modified="2023-11-20T03:59:57.840Z" agent="Mozilla/5.0 (Windows NT 10.0; Win64; x64) AppleWebKit/537.36 (KHTML, like Gecko) Chrome/119.0.0.0 Safari/537.36" etag="w7aXVCUvkkS1mHETZNY-" version="21.5.1" type="github">
  <diagram name="Page-1" id="JJq_69p4aXd28ef0l94x">
    <mxGraphModel dx="1562" dy="822" grid="1" gridSize="10" guides="1" tooltips="1" connect="1" arrows="1" fold="1" page="1" pageScale="1" pageWidth="2339" pageHeight="3300" math="0" shadow="0">
      <root>
        <mxCell id="0" />
        <mxCell id="1" parent="0" />
        <mxCell id="zcmW1wmm54PNnzJU0-hZ-1" value="攻击者" style="whiteSpace=wrap;html=1;aspect=fixed;" vertex="1" parent="1">
          <mxGeometry x="360" y="160" width="80" height="80" as="geometry" />
        </mxCell>
        <mxCell id="zcmW1wmm54PNnzJU0-hZ-2" value="服务器" style="whiteSpace=wrap;html=1;aspect=fixed;" vertex="1" parent="1">
          <mxGeometry x="680" y="160" width="80" height="80" as="geometry" />
        </mxCell>
        <mxCell id="zcmW1wmm54PNnzJU0-hZ-3" value="" style="endArrow=none;html=1;rounded=0;entryX=0.5;entryY=1;entryDx=0;entryDy=0;" edge="1" parent="1" target="zcmW1wmm54PNnzJU0-hZ-1">
          <mxGeometry width="50" height="50" relative="1" as="geometry">
            <mxPoint x="400" y="640" as="sourcePoint" />
            <mxPoint x="820" y="400" as="targetPoint" />
          </mxGeometry>
        </mxCell>
        <mxCell id="zcmW1wmm54PNnzJU0-hZ-4" value="" style="endArrow=none;html=1;rounded=0;entryX=0.5;entryY=1;entryDx=0;entryDy=0;" edge="1" parent="1" target="zcmW1wmm54PNnzJU0-hZ-2">
          <mxGeometry width="50" height="50" relative="1" as="geometry">
            <mxPoint x="720" y="640" as="sourcePoint" />
            <mxPoint x="820" y="400" as="targetPoint" />
          </mxGeometry>
        </mxCell>
        <mxCell id="zcmW1wmm54PNnzJU0-hZ-5" value="thinkphp" style="whiteSpace=wrap;html=1;aspect=fixed;" vertex="1" parent="1">
          <mxGeometry x="1000" y="160" width="80" height="80" as="geometry" />
        </mxCell>
        <mxCell id="zcmW1wmm54PNnzJU0-hZ-6" value="" style="endArrow=none;html=1;rounded=0;entryX=0.5;entryY=1;entryDx=0;entryDy=0;" edge="1" parent="1" target="zcmW1wmm54PNnzJU0-hZ-5">
          <mxGeometry width="50" height="50" relative="1" as="geometry">
            <mxPoint x="1040" y="640" as="sourcePoint" />
            <mxPoint x="820" y="400" as="targetPoint" />
          </mxGeometry>
        </mxCell>
        <mxCell id="zcmW1wmm54PNnzJU0-hZ-7" value="" style="endArrow=classic;html=1;rounded=0;" edge="1" parent="1">
          <mxGeometry width="50" height="50" relative="1" as="geometry">
            <mxPoint x="400" y="320" as="sourcePoint" />
            <mxPoint x="720" y="320" as="targetPoint" />
          </mxGeometry>
        </mxCell>
        <mxCell id="zcmW1wmm54PNnzJU0-hZ-8" value="&lt;font style=&quot;font-size: 15px;&quot;&gt;发送恶意请求&lt;/font&gt;" style="edgeLabel;html=1;align=center;verticalAlign=middle;resizable=0;points=[];" vertex="1" connectable="0" parent="zcmW1wmm54PNnzJU0-hZ-7">
          <mxGeometry x="-0.0262" relative="1" as="geometry">
            <mxPoint as="offset" />
          </mxGeometry>
        </mxCell>
        <mxCell id="zcmW1wmm54PNnzJU0-hZ-9" value="" style="endArrow=none;html=1;rounded=0;" edge="1" parent="1">
          <mxGeometry width="50" height="50" relative="1" as="geometry">
            <mxPoint x="720" y="400" as="sourcePoint" />
            <mxPoint x="1040" y="400" as="targetPoint" />
          </mxGeometry>
        </mxCell>
        <mxCell id="zcmW1wmm54PNnzJU0-hZ-10" value="&lt;font style=&quot;font-size: 15px;&quot;&gt;thinkphp解析解析controller，&lt;br&gt;调用invokefunction执行系统命令&lt;/font&gt;" style="edgeLabel;html=1;align=center;verticalAlign=middle;resizable=0;points=[];" vertex="1" connectable="0" parent="zcmW1wmm54PNnzJU0-hZ-9">
          <mxGeometry x="-0.0075" y="3" relative="1" as="geometry">
            <mxPoint as="offset" />
          </mxGeometry>
        </mxCell>
        <mxCell id="zcmW1wmm54PNnzJU0-hZ-11" value="" style="endArrow=classic;html=1;rounded=0;" edge="1" parent="1">
          <mxGeometry width="50" height="50" relative="1" as="geometry">
            <mxPoint x="1040" y="480" as="sourcePoint" />
            <mxPoint x="720" y="480" as="targetPoint" />
          </mxGeometry>
        </mxCell>
        <mxCell id="zcmW1wmm54PNnzJU0-hZ-12" value="Text" style="edgeLabel;html=1;align=center;verticalAlign=middle;resizable=0;points=[];" vertex="1" connectable="0" parent="zcmW1wmm54PNnzJU0-hZ-11">
          <mxGeometry x="0.0325" y="-5" relative="1" as="geometry">
            <mxPoint as="offset" />
          </mxGeometry>
        </mxCell>
        <mxCell id="zcmW1wmm54PNnzJU0-hZ-13" value="&lt;font style=&quot;font-size: 15px;&quot;&gt;返回代码执行结果&lt;/font&gt;" style="edgeLabel;html=1;align=center;verticalAlign=middle;resizable=0;points=[];" vertex="1" connectable="0" parent="zcmW1wmm54PNnzJU0-hZ-11">
          <mxGeometry x="0.0387" y="-4" relative="1" as="geometry">
            <mxPoint as="offset" />
          </mxGeometry>
        </mxCell>
        <mxCell id="zcmW1wmm54PNnzJU0-hZ-14" value="" style="endArrow=classic;html=1;rounded=0;" edge="1" parent="1">
          <mxGeometry width="50" height="50" relative="1" as="geometry">
            <mxPoint x="720" y="560" as="sourcePoint" />
            <mxPoint x="400" y="560" as="targetPoint" />
          </mxGeometry>
        </mxCell>
        <mxCell id="zcmW1wmm54PNnzJU0-hZ-15" value="&lt;font style=&quot;font-size: 15px;&quot;&gt;返回代码执行结果&lt;/font&gt;" style="edgeLabel;html=1;align=center;verticalAlign=middle;resizable=0;points=[];" vertex="1" connectable="0" parent="zcmW1wmm54PNnzJU0-hZ-14">
          <mxGeometry x="0.0512" relative="1" as="geometry">
            <mxPoint as="offset" />
          </mxGeometry>
        </mxCell>
      </root>
    </mxGraphModel>
  </diagram>
</mxfile>
